<svg xmlns="http://www.w3.org/2000/svg" width="27.08" height="36.891" viewBox="0 0 27.08 36.891">
  <g id="Group_134" data-name="Group 134" transform="translate(-931.841 -473.419)">
    <path id="Path_205" data-name="Path 205" d="M944.192,473.726h-.641v10.057a3.2,3.2,0,0,1-2.655,3.147v-13.2h-3.2v13.2a3.194,3.194,0,0,1-2.654-3.147V473.726h-.64a2.561,2.561,0,0,0-2.561,2.561v7.5a6.4,6.4,0,0,0,5.855,6.37v20.321h3.2V490.153a6.4,6.4,0,0,0,5.856-6.37v-7.5A2.561,2.561,0,0,0,944.192,473.726Z" transform="translate(0 -0.164)" />
    <path id="Path_206" data-name="Path 206" d="M982.113,487.249v-11.98a1.847,1.847,0,0,0-3.027-1.42,10.524,10.524,0,0,0-3.795,8.091v10a5.149,5.149,0,0,0,3.655,4.926V510.31h3.2V487.249Z" transform="translate(-23.226)" />
  </g>
</svg>
