<svg xmlns="http://www.w3.org/2000/svg" width="13.758" height="18.743" viewBox="0 0 13.758 18.743">
  <g id="Group_115" data-name="Group 115" transform="translate(-931.841 -473.419)">
    <path id="Path_146" data-name="Path 146" d="M938.116,473.726h-.325v5.109a1.623,1.623,0,0,1-1.349,1.6v-6.708h-1.626v6.708a1.623,1.623,0,0,1-1.348-1.6v-5.109h-.325a1.3,1.3,0,0,0-1.3,1.3v3.808a3.249,3.249,0,0,0,2.975,3.236V492.4h1.626V482.072a3.249,3.249,0,0,0,2.975-3.236v-3.808A1.3,1.3,0,0,0,938.116,473.726Z" transform="translate(0 -0.235)" fill="#fff"/>
    <path id="Path_147" data-name="Path 147" d="M978.757,480.445v-6.087a.938.938,0,0,0-1.538-.721,5.347,5.347,0,0,0-1.928,4.111v5.078a2.616,2.616,0,0,0,1.857,2.5v6.832h1.626V480.445Z" transform="translate(-33.175)" fill="#fff"/>
  </g>
</svg>
