<svg xmlns="http://www.w3.org/2000/svg" width="151.558" height="45" viewBox="0 0 151.558 45">
  <g id="fwefw" transform="translate(-806.932 -245.933)">
    <g id="Group_77" data-name="Group 77" transform="translate(806.932 245.933)">
      <g id="Group_54" data-name="Group 54" transform="translate(0 0)">
        <g id="Group_49" data-name="Group 49" transform="translate(0 6.695)">
          <path id="Path_112" data-name="Path 112" d="M831.649,280.448l.732,8.927h-.732a12.194,12.194,0,0,0-2.857-5.027,8.935,8.935,0,0,0-6.487-2.44,9.229,9.229,0,0,0-8.219,4.276,15.373,15.373,0,0,0-2.356,8.594,17.19,17.19,0,0,0,1.564,7.385,10.988,10.988,0,0,0,4.1,4.891,9.828,9.828,0,0,0,5.205,1.554,11.528,11.528,0,0,0,3.025-.4,12.064,12.064,0,0,0,2.816-1.168v-8.178a7.555,7.555,0,0,0-.323-2.783,2.185,2.185,0,0,0-1-1,5.779,5.779,0,0,0-2.388-.345v-.792h10.951v.792h-.521a2.328,2.328,0,0,0-2.231,1.086,7.306,7.306,0,0,0-.417,3.043v8.657a21.033,21.033,0,0,1-4.735,1.9,20.733,20.733,0,0,1-5.195.605q-8.2,0-12.452-5.257a14.038,14.038,0,0,1-3.192-9.093,15.941,15.941,0,0,1,7.634-13.414,14.312,14.312,0,0,1,7.343-1.814,14.511,14.511,0,0,1,2.806.249,25.776,25.776,0,0,1,3.578,1.107,5.777,5.777,0,0,0,1.564.438.834.834,0,0,0,.677-.365,2.791,2.791,0,0,0,.344-1.428Z" transform="translate(-806.932 -280.448)" fill="#fdfeff"/>
        </g>
        <g id="Group_50" data-name="Group 50" transform="translate(31.288)">
          <path id="Path_113" data-name="Path 113" d="M988.375,254.047v-.772h10.013v.772h-1.063a2.872,2.872,0,0,0-2.565,1.4,6.372,6.372,0,0,0-.438,3V269.92a20.358,20.358,0,0,1-.844,6.6,8.3,8.3,0,0,1-3.318,4.024,11.82,11.82,0,0,1-6.726,1.68q-4.631,0-7.032-1.607A8.706,8.706,0,0,1,973,276.3a23.933,23.933,0,0,1-.669-6.968V258.281q0-2.608-.719-3.422a2.96,2.96,0,0,0-2.326-.812h-1.063v-.772h12.222v.772h-1.084a2.8,2.8,0,0,0-2.5,1.1,6.169,6.169,0,0,0-.522,3.129v12.329a27.19,27.19,0,0,0,.3,3.775,8.012,8.012,0,0,0,1.1,3.316,5.934,5.934,0,0,0,2.282,1.962,7.909,7.909,0,0,0,3.661.77,10.11,10.11,0,0,0,4.966-1.208,6.49,6.49,0,0,0,2.993-3.1,17.982,17.982,0,0,0,.8-6.394V258.281q0-2.649-.585-3.317a3.065,3.065,0,0,0-2.42-.917h-1.065Zm-7.717-8.114a2.262,2.262,0,1,1,.02,4.525,2.2,2.2,0,0,1-1.606-.657,2.156,2.156,0,0,1-.668-1.6,2.214,2.214,0,0,1,.658-1.606A2.156,2.156,0,0,1,980.659,245.933Zm7.364,0a2.154,2.154,0,0,1,1.6.667,2.2,2.2,0,0,1,.656,1.606,2.241,2.241,0,0,1-2.252,2.252,2.2,2.2,0,0,1-1.607-.657,2.151,2.151,0,0,1-.667-1.6,2.277,2.277,0,0,1,2.274-2.273Z" transform="translate(-968.227 -245.933)" fill="#fdfeff"/>
        </g>
        <g id="Group_51" data-name="Group 51" transform="translate(64.348 7.341)">
          <path id="Path_114" data-name="Path 114" d="M1166.8,312.064h-7.551l-9.574-13.226c-.709.03-1.287.042-1.732.042q-.27,0-.584-.009c-.208-.007-.423-.016-.646-.032v8.219q0,2.668.585,3.317a2.969,2.969,0,0,0,2.377.918h1.106v.772h-12.12v-.772h1.063a2.849,2.849,0,0,0,2.567-1.168,6.62,6.62,0,0,0,.436-3.067V288.784q0-2.67-.584-3.317a3.065,3.065,0,0,0-2.419-.917h-1.063v-.772h10.3a24.557,24.557,0,0,1,6.644.657,7.611,7.611,0,0,1,3.63,2.42,6.3,6.3,0,0,1,1.491,4.2,6.6,6.6,0,0,1-1.7,4.527,9.594,9.594,0,0,1-5.266,2.711l5.839,8.115a14.49,14.49,0,0,0,3.443,3.714,8.685,8.685,0,0,0,3.754,1.168v.772Zm-20.087-14.538q.4,0,.688.009c.194.008.355.011.48.011q4.047,0,6.1-1.752a5.607,5.607,0,0,0,2.056-4.465,5.831,5.831,0,0,0-1.658-4.307,5.929,5.929,0,0,0-4.391-1.66,18.46,18.46,0,0,0-3.275.4v11.767Z" transform="translate(-1138.659 -283.778)" fill="#fdfeff"/>
        </g>
        <g id="Group_52" data-name="Group 52" transform="translate(94.154 6.695)">
          <path id="Path_115" data-name="Path 115" d="M1311.529,299.909h-10.953l-1.919,4.464a7.084,7.084,0,0,0-.708,2.462,1.433,1.433,0,0,0,.616,1.138,5.385,5.385,0,0,0,2.66.635v.772h-8.908v-.772a4.784,4.784,0,0,0,2.294-.814,12.766,12.766,0,0,0,2.357-4.068l9.949-23.279h.732l9.846,23.53a10.7,10.7,0,0,0,2.159,3.682,4.389,4.389,0,0,0,2.7.948v.772H1311.2v-.772a4.176,4.176,0,0,0,2.281-.563,1.452,1.452,0,0,0,.6-1.168,8.635,8.635,0,0,0-.836-2.9Zm-.585-1.544-4.8-11.431-4.923,11.431Z" transform="translate(-1292.317 -280.447)" fill="#fdfeff"/>
        </g>
        <g id="Group_53" data-name="Group 53" transform="translate(127.235 7.341)">
          <path id="Path_116" data-name="Path 116" d="M1486.489,304.242l.688.146-2.419,7.676h-21.9v-.772h1.065a2.85,2.85,0,0,0,2.566-1.168,6.712,6.712,0,0,0,.439-3.088V288.784q0-2.649-.585-3.317a3.065,3.065,0,0,0-2.42-.917h-1.064v-.772h12.809v.772a7.818,7.818,0,0,0-3.162.416,2.565,2.565,0,0,0-1.241,1.107,9.126,9.126,0,0,0-.333,3.19v17.773a5.779,5.779,0,0,0,.333,2.376,1.5,1.5,0,0,0,.773.649,13.451,13.451,0,0,0,3.255.209h2.065a14.955,14.955,0,0,0,4.568-.48,5.94,5.94,0,0,0,2.4-1.7A13.9,13.9,0,0,0,1486.489,304.242Z" transform="translate(-1462.854 -283.778)" fill="#fdfeff"/>
        </g>
      </g>
      <g id="Group_76" data-name="Group 76" transform="translate(0.092 40.56)">
        <g id="Group_55" data-name="Group 55" transform="translate(0 0.096)">
          <path id="Path_117" data-name="Path 117" d="M808.613,457.785v1.237a.869.869,0,0,0,.089.5.453.453,0,0,0,.361.139h.161v.115H807.4v-.115h.16a.428.428,0,0,0,.384-.175,1.039,1.039,0,0,0,.064-.461v-2.744a.879.879,0,0,0-.086-.5.457.457,0,0,0-.362-.137h-.16v-.117h1.556a2.773,2.773,0,0,1,.9.118,1.241,1.241,0,0,1,.555.4,1.015,1.015,0,0,1,.224.659,1.108,1.108,0,0,1-.343.845,1.344,1.344,0,0,1-.968.329,2.564,2.564,0,0,1-.332-.024C808.878,457.834,808.75,457.814,808.613,457.785Zm0-.18c.112.022.21.037.3.047a1.672,1.672,0,0,0,.219.017.741.741,0,0,0,.561-.254.908.908,0,0,0,.237-.652,1.192,1.192,0,0,0-.112-.513.79.79,0,0,0-.319-.354.932.932,0,0,0-.471-.117,1.886,1.886,0,0,0-.41.06V457.6Z" transform="translate(-807.405 -455.525)" fill="#fdfeff"/>
        </g>
        <g id="Group_56" data-name="Group 56" transform="translate(6.265 0.096)">
          <path id="Path_118" data-name="Path 118" d="M843.926,459.772h-1.133l-1.438-1.985c-.106,0-.193.006-.26.006h-.086l-.1-.005v1.234a.875.875,0,0,0,.09.5.444.444,0,0,0,.357.139h.165v.115H839.7v-.115h.16a.424.424,0,0,0,.382-.175.978.978,0,0,0,.067-.461v-2.744a.866.866,0,0,0-.087-.5.46.46,0,0,0-.363-.137H839.7v-.117h1.546a3.612,3.612,0,0,1,1,.1,1.137,1.137,0,0,1,.545.363.945.945,0,0,1,.225.631.993.993,0,0,1-.256.68,1.44,1.44,0,0,1-.791.407l.877,1.218a2.258,2.258,0,0,0,.516.559,1.336,1.336,0,0,0,.564.176v.114Zm-3.018-2.181h.177a1.372,1.372,0,0,0,.915-.263.837.837,0,0,0,.309-.67.882.882,0,0,0-.247-.647.9.9,0,0,0-.659-.249,2.728,2.728,0,0,0-.495.061v1.767Z" transform="translate(-839.703 -455.525)" fill="#fdfeff"/>
        </g>
        <g id="Group_57" data-name="Group 57" transform="translate(13.256 0.095)">
          <path id="Path_119" data-name="Path 119" d="M876.952,455.753v1.678h.934a.76.76,0,0,0,.485-.109.7.7,0,0,0,.181-.507h.115v1.478h-.115a1.708,1.708,0,0,0-.087-.4.4.4,0,0,0-.186-.173.941.941,0,0,0-.394-.063h-.934v1.4a1.31,1.31,0,0,0,.025.343.2.2,0,0,0,.087.1.528.528,0,0,0,.239.036h.72a1.948,1.948,0,0,0,.522-.05.8.8,0,0,0,.314-.2,2.417,2.417,0,0,0,.4-.585h.126l-.367,1.063h-3.274v-.115h.152a.626.626,0,0,0,.286-.072.268.268,0,0,0,.136-.152,1.523,1.523,0,0,0,.036-.409v-2.76a.91.91,0,0,0-.082-.5.5.5,0,0,0-.376-.125h-.152v-.117h3.273l.047.933h-.122a1.472,1.472,0,0,0-.146-.461.5.5,0,0,0-.236-.192,1.415,1.415,0,0,0-.442-.047h-1.164Z" transform="translate(-875.741 -455.52)" fill="#fdfeff"/>
        </g>
        <g id="Group_58" data-name="Group 58" transform="translate(19.843 0.096)">
          <path id="Path_120" data-name="Path 120" d="M912.219,459.771l-1.641-3.573v2.836a.857.857,0,0,0,.085.489.458.458,0,0,0,.365.133h.151v.115H909.7v-.115h.151a.432.432,0,0,0,.383-.164.953.953,0,0,0,.068-.458V456.26a.971.971,0,0,0-.062-.406.353.353,0,0,0-.161-.152.874.874,0,0,0-.379-.06v-.117h1.2l1.543,3.325,1.515-3.325h1.2v.117h-.147a.441.441,0,0,0-.385.162.968.968,0,0,0-.069.457v2.775a.848.848,0,0,0,.088.489.465.465,0,0,0,.366.133h.147v.115h-1.8v-.115h.151a.424.424,0,0,0,.381-.164.958.958,0,0,0,.07-.458V456.2l-1.64,3.573Z" transform="translate(-909.7 -455.524)" fill="#fdfeff"/>
        </g>
        <g id="Group_59" data-name="Group 59" transform="translate(28.294 0.096)">
          <path id="Path_121" data-name="Path 121" d="M955.086,459.656v.115h-1.82v-.115h.149a.456.456,0,0,0,.382-.154.948.948,0,0,0,.075-.482v-2.744a1.448,1.448,0,0,0-.04-.426.284.284,0,0,0-.127-.136.6.6,0,0,0-.29-.074h-.149v-.117h1.82v.117h-.154a.449.449,0,0,0-.379.154.936.936,0,0,0-.077.482v2.744a1.377,1.377,0,0,0,.041.426.265.265,0,0,0,.131.133.576.576,0,0,0,.284.077Z" transform="translate(-953.266 -455.523)" fill="#fdfeff"/>
        </g>
        <g id="Group_60" data-name="Group 60" transform="translate(33.094 0.095)">
          <path id="Path_122" data-name="Path 122" d="M979.221,455.753v1.678h.936a.756.756,0,0,0,.484-.109.7.7,0,0,0,.183-.507h.115v1.478h-.115a1.637,1.637,0,0,0-.089-.4.388.388,0,0,0-.184-.173.949.949,0,0,0-.394-.063h-.935v1.4a1.4,1.4,0,0,0,.025.343.2.2,0,0,0,.088.1.522.522,0,0,0,.239.036h.722a1.944,1.944,0,0,0,.522-.05.814.814,0,0,0,.314-.2,2.456,2.456,0,0,0,.4-.585h.125l-.366,1.063h-3.274v-.115h.151a.609.609,0,0,0,.284-.072.254.254,0,0,0,.136-.152,1.421,1.421,0,0,0,.037-.409v-2.76a.911.911,0,0,0-.082-.5.49.49,0,0,0-.376-.125h-.151v-.117h3.274l.047.933h-.121a1.487,1.487,0,0,0-.146-.461.5.5,0,0,0-.237-.192,1.406,1.406,0,0,0-.442-.047h-1.166Z" transform="translate(-978.013 -455.52)" fill="#fdfeff"/>
        </g>
        <g id="Group_61" data-name="Group 61" transform="translate(39.685 0.096)">
          <path id="Path_123" data-name="Path 123" d="M1016.211,459.772h-1.133l-1.437-1.985c-.107,0-.193.006-.259.006h-.088l-.1-.005v1.234a.863.863,0,0,0,.088.5.444.444,0,0,0,.357.139h.166v.115h-1.82v-.115h.16a.427.427,0,0,0,.385-.175,1,1,0,0,0,.066-.461v-2.744a.868.868,0,0,0-.087-.5.462.462,0,0,0-.364-.137h-.16v-.117h1.547a3.608,3.608,0,0,1,1,.1,1.127,1.127,0,0,1,.545.363.948.948,0,0,1,.223.631,1,1,0,0,1-.253.68,1.447,1.447,0,0,1-.791.407l.875,1.218a2.236,2.236,0,0,0,.517.559,1.328,1.328,0,0,0,.563.175v.115Zm-3.015-2.181h.176a1.374,1.374,0,0,0,.915-.263.841.841,0,0,0,.308-.67.878.878,0,0,0-.248-.647.893.893,0,0,0-.659-.249,2.7,2.7,0,0,0-.492.061v1.767Z" transform="translate(-1011.987 -455.525)" fill="#fdfeff"/>
        </g>
        <g id="Group_62" data-name="Group 62" transform="translate(50.953 0.096)">
          <path id="Path_124" data-name="Path 124" d="M1071.287,457.493h1.972v-1.216a1.423,1.423,0,0,0-.041-.427.281.281,0,0,0-.131-.136.583.583,0,0,0-.286-.074h-.151v-.117h1.817v.117h-.149a.6.6,0,0,0-.286.073.262.262,0,0,0-.136.151,1.55,1.55,0,0,0-.035.415v2.742a1.408,1.408,0,0,0,.04.426.271.271,0,0,0,.127.133.606.606,0,0,0,.29.077h.149v.115h-1.817v-.115h.151a.453.453,0,0,0,.379-.154.929.929,0,0,0,.078-.482v-1.295h-1.972v1.295a1.389,1.389,0,0,0,.04.426.274.274,0,0,0,.133.133.571.571,0,0,0,.285.077h.152v.115h-1.819v-.115h.149a.454.454,0,0,0,.383-.154.955.955,0,0,0,.077-.482v-2.742a1.36,1.36,0,0,0-.043-.427.269.269,0,0,0-.127-.136.594.594,0,0,0-.289-.074h-.149v-.117h1.819v.117h-.152a.591.591,0,0,0-.285.072.267.267,0,0,0-.136.151,1.452,1.452,0,0,0-.036.415v1.216Z" transform="translate(-1070.077 -455.522)" fill="#fdfeff"/>
        </g>
        <g id="Group_63" data-name="Group 63" transform="translate(58.394 0)">
          <path id="Path_125" data-name="Path 125" d="M1110.558,455.031a1.921,1.921,0,0,1,1.432.628,2.167,2.167,0,0,1,.607,1.566,2.225,2.225,0,0,1-.612,1.606,2.041,2.041,0,0,1-2.95.017,2.237,2.237,0,0,1-.6-1.613,2.143,2.143,0,0,1,.691-1.65A2.023,2.023,0,0,1,1110.558,455.031Zm-.06.228a1.119,1.119,0,0,0-.915.424,2.38,2.38,0,0,0-.43,1.539,2.529,2.529,0,0,0,.446,1.6,1.1,1.1,0,0,0,.9.425,1.231,1.231,0,0,0,.988-.466,2.273,2.273,0,0,0,.391-1.471,2.567,2.567,0,0,0-.43-1.626A1.156,1.156,0,0,0,1110.5,455.259Z" transform="translate(-1108.436 -455.031)" fill="#fdfeff"/>
        </g>
        <g id="Group_64" data-name="Group 64" transform="translate(65.689 0.096)">
          <path id="Path_126" data-name="Path 126" d="M1149.561,455.522l.046,1h-.119a1.206,1.206,0,0,0-.093-.376.634.634,0,0,0-.26-.268.891.891,0,0,0-.425-.088h-.6v3.245a.878.878,0,0,0,.085.489.471.471,0,0,0,.366.133h.146v.115h-1.8v-.115h.149a.43.43,0,0,0,.382-.164.94.94,0,0,0,.069-.458v-3.245H1147a1.455,1.455,0,0,0-.424.045.576.576,0,0,0-.277.229.906.906,0,0,0-.138.457h-.119l.049-1Z" transform="translate(-1146.044 -455.522)" fill="#fdfeff"/>
        </g>
        <g id="Group_65" data-name="Group 65" transform="translate(72.237 0.095)">
          <path id="Path_127" data-name="Path 127" d="M1181.012,455.753v1.678h.932a.754.754,0,0,0,.485-.109.7.7,0,0,0,.182-.507h.116v1.478h-.116a1.669,1.669,0,0,0-.088-.4.388.388,0,0,0-.185-.173.951.951,0,0,0-.4-.063h-.933v1.4a1.236,1.236,0,0,0,.026.343.19.19,0,0,0,.087.1.514.514,0,0,0,.238.036h.72a1.968,1.968,0,0,0,.524-.05.825.825,0,0,0,.311-.2,2.406,2.406,0,0,0,.4-.585h.125l-.367,1.063H1179.8v-.115h.15a.614.614,0,0,0,.284-.072.261.261,0,0,0,.137-.152,1.481,1.481,0,0,0,.034-.409v-2.76a.925.925,0,0,0-.08-.5.5.5,0,0,0-.376-.125h-.15v-.117h3.272l.047.933H1183a1.457,1.457,0,0,0-.146-.461.5.5,0,0,0-.236-.192,1.41,1.41,0,0,0-.441-.047h-1.165Z" transform="translate(-1179.803 -455.52)" fill="#fdfeff"/>
        </g>
        <g id="Group_66" data-name="Group 66" transform="translate(78.845 0.096)">
          <path id="Path_128" data-name="Path 128" d="M1217.416,458.6l.1.02-.364,1.153h-3.288v-.115h.16a.428.428,0,0,0,.385-.175,1.016,1.016,0,0,0,.067-.465v-2.739a.867.867,0,0,0-.089-.5.459.459,0,0,0-.363-.137h-.16v-.117h1.923v.117a1.152,1.152,0,0,0-.474.063.4.4,0,0,0-.188.164,1.432,1.432,0,0,0-.048.48v2.669a.892.892,0,0,0,.048.358.235.235,0,0,0,.118.1,1.962,1.962,0,0,0,.487.032h.31a2.181,2.181,0,0,0,.686-.073.876.876,0,0,0,.361-.255A2.065,2.065,0,0,0,1217.416,458.6Z" transform="translate(-1213.868 -455.524)" fill="#fdfeff"/>
        </g>
        <g id="Group_67" data-name="Group 67" transform="translate(85.729 0)">
          <path id="Path_129" data-name="Path 129" d="M1251.9,455.03V456.5h-.117a1.83,1.83,0,0,0-.2-.673,1.048,1.048,0,0,0-.414-.4,1.154,1.154,0,0,0-.559-.148.756.756,0,0,0-.538.2.6.6,0,0,0-.214.452.531.531,0,0,0,.135.353,3.441,3.441,0,0,0,.924.627,6.308,6.308,0,0,1,.812.49,1.205,1.205,0,0,1,.336.4,1.079,1.079,0,0,1,.117.486,1.1,1.1,0,0,1-.375.832,1.348,1.348,0,0,1-.963.348,2.014,2.014,0,0,1-.348-.028,3.285,3.285,0,0,1-.4-.115,1.83,1.83,0,0,0-.388-.1.169.169,0,0,0-.124.044.4.4,0,0,0-.066.194h-.116v-1.454h.116a2.02,2.02,0,0,0,.219.683,1.057,1.057,0,0,0,.421.378,1.318,1.318,0,0,0,.622.15.881.881,0,0,0,.618-.207.637.637,0,0,0,.226-.489.672.672,0,0,0-.086-.316.955.955,0,0,0-.267-.3,7.418,7.418,0,0,0-.667-.4,6.3,6.3,0,0,1-.775-.488,1.316,1.316,0,0,1-.35-.4.993.993,0,0,1-.119-.482,1.044,1.044,0,0,1,.353-.789,1.25,1.25,0,0,1,.891-.329,1.78,1.78,0,0,1,.717.166.754.754,0,0,0,.248.077.187.187,0,0,0,.133-.048.37.37,0,0,0,.082-.2h.117Z" transform="translate(-1249.356 -455.03)" fill="#fdfeff"/>
        </g>
        <g id="Group_68" data-name="Group 68" transform="translate(96.121)">
          <path id="Path_130" data-name="Path 130" d="M1305.967,456.639h1.315v.117a.761.761,0,0,0-.4.119,2.294,2.294,0,0,0-.406.6,6.852,6.852,0,0,1-.62.929,2.2,2.2,0,0,0,.5.455.869.869,0,0,0,.443.128.578.578,0,0,0,.366-.117.637.637,0,0,0,.212-.346l.117.085a1.21,1.21,0,0,1-.373.651.916.916,0,0,1-.6.21,1.107,1.107,0,0,1-.522-.138,2.358,2.358,0,0,1-.578-.472,2.688,2.688,0,0,1-.7.476,1.663,1.663,0,0,1-.666.134,1.176,1.176,0,0,1-.82-.274.861.861,0,0,1-.3-.659,1.281,1.281,0,0,1,.273-.756,3.017,3.017,0,0,1,1.024-.782,3.372,3.372,0,0,1-.2-.533,1.559,1.559,0,0,1-.054-.4.94.94,0,0,1,.4-.818,1.166,1.166,0,0,1,.7-.219.844.844,0,0,1,.607.222.716.716,0,0,1,.235.542.843.843,0,0,1-.227.584,2.964,2.964,0,0,1-.8.548,12.635,12.635,0,0,0,.831,1.295,1.908,1.908,0,0,0,.551-1.109.392.392,0,0,0-.095-.256.28.28,0,0,0-.2-.1v-.117Zm-.71,2.039c-.278-.377-.467-.65-.573-.824s-.224-.389-.352-.644a1.789,1.789,0,0,0-.564.476.943.943,0,0,0-.19.564.879.879,0,0,0,.216.587.726.726,0,0,0,.582.256.947.947,0,0,0,.382-.079A2.441,2.441,0,0,0,1305.257,458.678Zm-.486-1.957a1.677,1.677,0,0,0,.581-.421.8.8,0,0,0,.192-.521.527.527,0,0,0-.138-.374.462.462,0,0,0-.346-.146.482.482,0,0,0-.413.19.628.628,0,0,0-.14.371,1.315,1.315,0,0,0,.053.343A5.59,5.59,0,0,0,1304.771,456.72Z" transform="translate(-1302.929 -455.029)" fill="#fdfeff"/>
        </g>
        <g id="Group_69" data-name="Group 69" transform="translate(107.975 0.096)">
          <path id="Path_131" data-name="Path 131" d="M1368.264,459.772h-1.133l-1.438-1.985c-.106,0-.194.006-.26.006h-.087l-.1-.005v1.234a.868.868,0,0,0,.087.5.447.447,0,0,0,.358.139h.166v.115h-1.82v-.115h.161a.428.428,0,0,0,.384-.175,1,1,0,0,0,.066-.461v-2.744a.87.87,0,0,0-.087-.5.458.458,0,0,0-.363-.137h-.161v-.117h1.548a3.618,3.618,0,0,1,1,.1,1.139,1.139,0,0,1,.545.363.946.946,0,0,1,.224.631.991.991,0,0,1-.254.68,1.445,1.445,0,0,1-.793.407l.878,1.218a2.256,2.256,0,0,0,.516.559,1.331,1.331,0,0,0,.564.176v.114Zm-3.016-2.181h.176a1.379,1.379,0,0,0,.916-.263.849.849,0,0,0,.308-.67.876.876,0,0,0-.249-.647.894.894,0,0,0-.66-.249,2.686,2.686,0,0,0-.491.061v1.767Z" transform="translate(-1364.039 -455.525)" fill="#fdfeff"/>
        </g>
        <g id="Group_70" data-name="Group 70" transform="translate(114.969 0.095)">
          <path id="Path_132" data-name="Path 132" d="M1401.3,455.753v1.678h.934a.757.757,0,0,0,.485-.109.7.7,0,0,0,.182-.507h.116v1.478h-.116a1.742,1.742,0,0,0-.088-.4.393.393,0,0,0-.186-.173.937.937,0,0,0-.393-.063h-.934v1.4a1.25,1.25,0,0,0,.027.343.185.185,0,0,0,.086.1.524.524,0,0,0,.238.036h.722a1.94,1.94,0,0,0,.522-.05.82.82,0,0,0,.314-.2,2.428,2.428,0,0,0,.4-.585h.127l-.368,1.063h-3.273v-.115h.15a.62.62,0,0,0,.286-.072.253.253,0,0,0,.135-.152,1.41,1.41,0,0,0,.036-.409v-2.76a.918.918,0,0,0-.079-.5.5.5,0,0,0-.378-.125h-.15v-.117h3.273l.047.933h-.121a1.47,1.47,0,0,0-.146-.461.5.5,0,0,0-.236-.192,1.411,1.411,0,0,0-.442-.047H1401.3Z" transform="translate(-1400.092 -455.52)" fill="#fdfeff"/>
        </g>
        <g id="Group_71" data-name="Group 71" transform="translate(121.848 0)">
          <path id="Path_133" data-name="Path 133" d="M1438.1,455.03V456.5h-.117a1.85,1.85,0,0,0-.2-.673,1.058,1.058,0,0,0-.416-.4,1.145,1.145,0,0,0-.557-.148.754.754,0,0,0-.538.2.6.6,0,0,0-.212.452.536.536,0,0,0,.134.353,3.43,3.43,0,0,0,.924.627,6.47,6.47,0,0,1,.812.49,1.177,1.177,0,0,1,.334.4,1.055,1.055,0,0,1,.119.486,1.1,1.1,0,0,1-.375.832,1.351,1.351,0,0,1-.963.348,2.028,2.028,0,0,1-.349-.028,3.357,3.357,0,0,1-.4-.115,1.852,1.852,0,0,0-.387-.1.17.17,0,0,0-.125.044.389.389,0,0,0-.066.194h-.115v-1.454h.115a2.106,2.106,0,0,0,.218.683,1.075,1.075,0,0,0,.422.378,1.322,1.322,0,0,0,.622.15.879.879,0,0,0,.619-.207.643.643,0,0,0,.228-.489.661.661,0,0,0-.087-.316.953.953,0,0,0-.267-.3,7.666,7.666,0,0,0-.666-.4,6.521,6.521,0,0,1-.777-.488,1.292,1.292,0,0,1-.348-.4,1,1,0,0,1-.12-.482,1.044,1.044,0,0,1,.352-.789,1.253,1.253,0,0,1,.893-.329,1.783,1.783,0,0,1,.716.166.759.759,0,0,0,.247.077.183.183,0,0,0,.134-.048.386.386,0,0,0,.083-.2h.118Z" transform="translate(-1435.559 -455.03)" fill="#fdfeff"/>
        </g>
        <g id="Group_72" data-name="Group 72" transform="translate(127.934 0)">
          <path id="Path_134" data-name="Path 134" d="M1469.054,455.031a1.921,1.921,0,0,1,1.432.628,2.164,2.164,0,0,1,.606,1.566,2.236,2.236,0,0,1-.611,1.606,2.041,2.041,0,0,1-2.95.017,2.236,2.236,0,0,1-.6-1.613,2.144,2.144,0,0,1,.691-1.65A2.022,2.022,0,0,1,1469.054,455.031Zm-.06.228a1.115,1.115,0,0,0-.913.424,2.378,2.378,0,0,0-.431,1.539,2.532,2.532,0,0,0,.445,1.6,1.1,1.1,0,0,0,.9.425,1.234,1.234,0,0,0,.99-.466,2.272,2.272,0,0,0,.39-1.471,2.567,2.567,0,0,0-.43-1.626A1.156,1.156,0,0,0,1468.994,455.259Z" transform="translate(-1466.933 -455.031)" fill="#fdfeff"/>
        </g>
        <g id="Group_73" data-name="Group 73" transform="translate(135.143 0.096)">
          <path id="Path_135" data-name="Path 135" d="M1508.324,459.772h-1.133l-1.439-1.985c-.107,0-.194.006-.26.006h-.087l-.1-.005v1.234a.86.86,0,0,0,.088.5.446.446,0,0,0,.357.139h.165v.115h-1.82v-.115h.16a.428.428,0,0,0,.385-.175,1,1,0,0,0,.066-.461v-2.744a.859.859,0,0,0-.088-.5.457.457,0,0,0-.363-.137h-.161v-.117h1.548a3.625,3.625,0,0,1,1,.1,1.133,1.133,0,0,1,.544.363.943.943,0,0,1,.223.631.989.989,0,0,1-.254.68,1.434,1.434,0,0,1-.791.407l.878,1.218a2.237,2.237,0,0,0,.516.559,1.323,1.323,0,0,0,.565.176v.114Zm-3.017-2.181h.175a1.378,1.378,0,0,0,.915-.263.845.845,0,0,0,.31-.67.877.877,0,0,0-.25-.647.892.892,0,0,0-.659-.249,2.69,2.69,0,0,0-.492.061v1.767Z" transform="translate(-1504.098 -455.525)" fill="#fdfeff"/>
        </g>
        <g id="Group_74" data-name="Group 74" transform="translate(141.815 0.096)">
          <path id="Path_136" data-name="Path 136" d="M1542.01,455.522l.047,1h-.12a1.183,1.183,0,0,0-.094-.376.613.613,0,0,0-.258-.268.877.877,0,0,0-.423-.088h-.6v3.245a.866.866,0,0,0,.084.489.467.467,0,0,0,.365.133h.149v.115h-1.8v-.115h.151a.431.431,0,0,0,.382-.164.96.96,0,0,0,.069-.458v-3.245h-.511a1.445,1.445,0,0,0-.423.045.58.58,0,0,0-.279.229.916.916,0,0,0-.137.457h-.119l.052-1Z" transform="translate(-1538.493 -455.522)" fill="#fdfeff"/>
        </g>
        <g id="Group_75" data-name="Group 75" transform="translate(148.634 0)">
          <path id="Path_137" data-name="Path 137" d="M1576.185,455.03V456.5h-.116a1.843,1.843,0,0,0-.2-.673,1.045,1.045,0,0,0-.415-.4,1.149,1.149,0,0,0-.557-.148.757.757,0,0,0-.539.2.6.6,0,0,0-.214.452.531.531,0,0,0,.135.353,3.415,3.415,0,0,0,.924.627,6.491,6.491,0,0,1,.814.49,1.242,1.242,0,0,1,.335.4,1.088,1.088,0,0,1,.117.486,1.106,1.106,0,0,1-.375.832,1.354,1.354,0,0,1-.965.348,1.993,1.993,0,0,1-.347-.028,3.344,3.344,0,0,1-.4-.115,1.8,1.8,0,0,0-.386-.1.169.169,0,0,0-.125.044.392.392,0,0,0-.067.194h-.116v-1.454h.116a2.061,2.061,0,0,0,.221.683,1.047,1.047,0,0,0,.42.378,1.32,1.32,0,0,0,.623.15.877.877,0,0,0,.617-.207.636.636,0,0,0,.227-.489.678.678,0,0,0-.086-.316.953.953,0,0,0-.268-.3c-.082-.061-.3-.2-.667-.4a6.37,6.37,0,0,1-.774-.488,1.268,1.268,0,0,1-.349-.4.974.974,0,0,1-.119-.482,1.05,1.05,0,0,1,.349-.789,1.255,1.255,0,0,1,.893-.329,1.772,1.772,0,0,1,.717.166.787.787,0,0,0,.247.077.186.186,0,0,0,.134-.048.385.385,0,0,0,.083-.2h.117Z" transform="translate(-1573.645 -455.03)" fill="#fdfeff"/>
        </g>
      </g>
    </g>
  </g>
</svg>
