<svg id="eqweqweq" xmlns="http://www.w3.org/2000/svg" width="204" height="56" viewBox="0 0 204 56">
  <g id="_00_HEADER" data-name="00_HEADER" transform="translate(-698 -33)">
    <g id="Logo-Rixos">
      <path id="Path_111" data-name="Path 111" d="M785.669,80.2a3.994,3.994,0,0,1,2.886,1.134,4.815,4.815,0,0,1-.044,6.566,4.016,4.016,0,0,1-2.842,1.1,3.953,3.953,0,0,1-2.961-1.214,4.393,4.393,0,0,1-1.195-3.182,4.341,4.341,0,0,1,1.276-3.273A4,4,0,0,1,785.669,80.2Zm32.922,0v.241a2.252,2.252,0,0,0-1.091.234c-.182.132-.272.411-.272.843v6.231a.652.652,0,0,0,.078.343.507.507,0,0,0,.366.152c.112.012.225.021.346.025s.352.007.688.007a8.025,8.025,0,0,0,2.647-.286,3.094,3.094,0,0,0,1.333-1.455h.375l-.72,2.248h-7.905v-.234a2.368,2.368,0,0,0,1.048-.253c.164-.122.244-.429.244-.919V81.61a1.224,1.224,0,0,0-.236-.9,1.886,1.886,0,0,0-1.056-.266V80.2Zm-45.2,0v.241a1.517,1.517,0,0,0-.908.259,1.345,1.345,0,0,0-.21.906v2.526h3.83V81.61a1.387,1.387,0,0,0-.2-.906,1.5,1.5,0,0,0-.906-.259V80.2H778.5v.241a1.519,1.519,0,0,0-.906.259,1.371,1.371,0,0,0-.2.906v5.769a1.366,1.366,0,0,0,.2.913,1.647,1.647,0,0,0,.906.26v.234h-3.509v-.234a1.554,1.554,0,0,0,.923-.279,1.8,1.8,0,0,0,.185-1.046V84.706h-3.83v2.673a1.341,1.341,0,0,0,.21.913,1.572,1.572,0,0,0,.908.26v.234h-3.512v-.234a1.66,1.66,0,0,0,.926-.279,1.809,1.809,0,0,0,.185-1.046V81.61a1.353,1.353,0,0,0-.21-.906,1.488,1.488,0,0,0-.9-.259V80.2Zm28.034,0,.079,2.2h-.356a2.472,2.472,0,0,0-.673-1.349,3.045,3.045,0,0,0-1.7-.318h-.835v6.638c0,.5.092.815.272.937a2.816,2.816,0,0,0,1.184.235v.234h-4.362v-.234a2.288,2.288,0,0,0,1.181-.273q.236-.21.236-1.051V80.741h-.833a3.232,3.232,0,0,0-1.7.312,2.173,2.173,0,0,0-.673,1.355h-.367l.087-2.2Zm29.7,0,.279,2.653h-.3a2.775,2.775,0,0,0-1-1.673,2.389,2.389,0,0,0-1.365-.474,1.466,1.466,0,0,0-.918.3.99.99,0,0,0-.388.834,1.2,1.2,0,0,0,.3.821,3.876,3.876,0,0,0,.931.723l1.126.676a5.78,5.78,0,0,1,1.488,1.161,2,2,0,0,1,.425,1.266,2.073,2.073,0,0,1-.763,1.635,2.851,2.851,0,0,1-1.937.656,3.9,3.9,0,0,1-1.245-.219,4.745,4.745,0,0,0-.737-.219.325.325,0,0,0-.3.134.9.9,0,0,0-.1.285h-.28l-.381-2.651h.293a4.431,4.431,0,0,0,.763,1.338,2.415,2.415,0,0,0,1.892.869,1.581,1.581,0,0,0,1.058-.376,1.3,1.3,0,0,0,.45-1.052,1.455,1.455,0,0,0-.45-1.06,8.109,8.109,0,0,0-1.238-.857l-1.092-.662a3.9,3.9,0,0,1-.79-.615,1.887,1.887,0,0,1-.543-1.3,2.1,2.1,0,0,1,.645-1.57,2.345,2.345,0,0,1,1.705-.627,3.262,3.262,0,0,1,1.05.214,4.652,4.652,0,0,0,.707.207.4.4,0,0,0,.323-.109.746.746,0,0,0,.145-.312Zm-20.36,0,.049,1.862h-.374a1.776,1.776,0,0,0-.56-1.115A3.473,3.473,0,0,0,808.2,80.7h-2c-.215,0-.348.032-.4.1a.575.575,0,0,0-.072.342v2.895H808a1.908,1.908,0,0,0,1.2-.247,1.992,1.992,0,0,0,.417-1h.344v3h-.344a1.992,1.992,0,0,0-.423-.995A1.9,1.9,0,0,0,808,84.541h-2.265v3.211c0,.259.093.411.274.457a10.656,10.656,0,0,0,1.661.07,6.293,6.293,0,0,0,2.205-.286,2.765,2.765,0,0,0,1.279-1.4h.411l-.67,2.191h-7.955v-.234a2.394,2.394,0,0,0,1.05-.253c.162-.122.244-.429.244-.919V81.61a1.218,1.218,0,0,0-.238-.9,1.887,1.887,0,0,0-1.056-.266V80.2Zm-25.088.462a2.42,2.42,0,0,0-1.933.965,6.031,6.031,0,0,0,0,5.951,2.429,2.429,0,0,0,3.847.025,6.039,6.039,0,0,0-.007-6.013A2.451,2.451,0,0,0,785.669,80.665Zm5.38-40.381L800,53.181l8.951-12.9h4.382L802.744,56.41,812.5,71.18l89.5.129-17.642,2.754-74.308.257L800,59.273,789.952,74.32l-74.308-.257L698,71.309l89.507-.129,9.751-14.77-10.59-16.126Zm78.17,5.589.634,6.63h-.69a7.1,7.1,0,0,0-2.262-4.182,5.047,5.047,0,0,0-3.066-1.185,3.072,3.072,0,0,0-2.067.761,2.593,2.593,0,0,0-.872,2.082,3.209,3.209,0,0,0,.675,2.053,8.832,8.832,0,0,0,2.1,1.809l2.53,1.688a13.378,13.378,0,0,1,3.348,2.9A5.314,5.314,0,0,1,870.5,61.6a5.435,5.435,0,0,1-1.715,4.091,6.027,6.027,0,0,1-4.361,1.642,7.979,7.979,0,0,1-2.8-.548,9.991,9.991,0,0,0-1.659-.548.712.712,0,0,0-.69.336,2.311,2.311,0,0,0-.225.713h-.631l-.859-6.629h.661A11.515,11.515,0,0,0,859.937,64a5.236,5.236,0,0,0,4.262,2.175,3.343,3.343,0,0,0,2.376-.944,3.412,3.412,0,0,0,1.013-2.631,3.822,3.822,0,0,0-1.013-2.646,17.88,17.88,0,0,0-2.785-2.143l-2.458-1.658a8.856,8.856,0,0,1-1.773-1.535,4.976,4.976,0,0,1-1.224-3.255,5.555,5.555,0,0,1,1.447-3.923,4.982,4.982,0,0,1,3.839-1.567,6.786,6.786,0,0,1,2.362.532,9.664,9.664,0,0,0,1.591.517.847.847,0,0,0,.731-.272,1.957,1.957,0,0,0,.323-.776Zm-37.532,0a9.618,9.618,0,0,1,6.988,2.764,10.61,10.61,0,0,1,3.075,7.973,10.512,10.512,0,0,1-3.18,8.046,9.7,9.7,0,0,1-6.882,2.673,9.523,9.523,0,0,1-7.166-2.96,10.756,10.756,0,0,1-2.9-7.759,10.636,10.636,0,0,1,3.09-7.988A9.635,9.635,0,0,1,831.687,45.874Zm0,1.124a5.83,5.83,0,0,0-4.677,2.354Q825.1,51.69,825.1,56.61q0,4.9,1.905,7.258a5.85,5.85,0,0,0,9.311.06q1.936-2.293,1.934-7.319,0-5.087-1.949-7.35A5.925,5.925,0,0,0,831.687,47ZM772.75,45.874v.562a3.958,3.958,0,0,0-2.306.576,3,3,0,0,0-.526,2.143V62.619q0,1.758.526,2.186a4.769,4.769,0,0,0,2.306.547V65.9h-8.625v-.547a4.77,4.77,0,0,0,2.305-.547q.527-.428.527-2.186V49.155a3,3,0,0,0-.527-2.143,3.958,3.958,0,0,0-2.305-.576v-.562Zm-35.074,0a11.452,11.452,0,0,1,4.19.665,4.607,4.607,0,0,1,3.181,4.626,4.311,4.311,0,0,1-1.42,3.474,7.543,7.543,0,0,1-3.836,1.6l5.995,7.671a4.056,4.056,0,0,0,1.107,1.035,3.48,3.48,0,0,0,1.419.413V65.9h-4.686l-6.931-9.31-1.618.073v5.958a3.156,3.156,0,0,0,.484,2.143,4.033,4.033,0,0,0,2.143.59V65.9h-8.079v-.547a3.207,3.207,0,0,0,2.087-.68,4.463,4.463,0,0,0,.411-2.409V49.155a3.169,3.169,0,0,0-.469-2.083,3.216,3.216,0,0,0-2.029-.636v-.562Zm-.808,1.154a3.492,3.492,0,0,0-1.52.191c-.181.119-.27.4-.27.858v7.464a14.221,14.221,0,0,0,4.488-.682,3.688,3.688,0,0,0,2.313-3.725,3.59,3.59,0,0,0-2.072-3.591A7.037,7.037,0,0,0,736.868,47.027ZM800.062,33l2.335,3.133-1.321,7.622,2.73-7.622h3.443L800.062,47.3l-7.188-11.171h3.443l2.733,7.622-1.322-7.622Z" fill="#fff0f0" fill-rule="evenodd"/>
    </g>
  </g>
</svg>
