<svg id="resort_logo" xmlns="http://www.w3.org/2000/svg" width="171.226" height="60.889" viewBox="0 0 171.226 60.889">
  <g id="Layer_1" data-name="Layer 1" transform="translate(0)">
    <path id="Path_89" data-name="Path 89" d="M277.34,121.318a.826.826,0,1,1,.824.824.826.826,0,0,1-.824-.824Z" transform="translate(-208.962 -90.781)" fill="#fff"/>
    <path id="Path_90" data-name="Path 90" d="M291.531,0,309.4,25.1h-.8L291.531,4.912,274.459,25.1h-.8Z" transform="translate(-206.189)" fill="#fff" fill-rule="evenodd"/>
    <path id="Path_91" data-name="Path 91" d="M286.161,37.979C249.233,49.2,245.1,16.24,214.62,30.43,245.066,18.461,245.379,52.224,286.161,37.979Z" transform="translate(-161.707 -20.204)" fill="#fff" fill-rule="evenodd"/>
    <path id="Path_92" data-name="Path 92" d="M220.5,55.969c-26.876,8.164-29.877-15.82-52.058-5.494C190.594,41.767,190.823,66.332,220.5,55.969Z" transform="translate(-126.913 -36.049)" fill="#fff" fill-rule="evenodd"/>
    <rect id="Rectangle_36" data-name="Rectangle 36" width="170.765" height="0.365" transform="translate(0.069 48.285)" fill="#fff"/>
    <path id="Path_93" data-name="Path 93" d="M5.045,137.8c-.069,0-.086-.052-.069-.121l1.605-4.3c.02-.069.054-.158.106-.158s.069.089.086.158L8.347,137.7c.017.052,0,.1-.086.1Zm3.546.875a.168.168,0,0,1,.175.121l1.4,3.7a.286.286,0,0,1-.158.4c-.175.017-.247.052-.247.158s.21.121.523.138c1.4.037,2.673.037,3.3.037s.8-.037.8-.175-.089-.141-.227-.141a3.879,3.879,0,0,1-.74-.069c-.367-.106-.873-.348-1.536-1.913-1.117-2.646-3.913-9.771-4.332-10.733-.175-.4-.279-.56-.436-.56s-.279.192-.493.7L2.251,141.317c-.35.873-.683,1.479-1.479,1.573a5.38,5.38,0,0,1-.542.035c-.141,0-.21.034-.21.141s.1.175.333.175c.907,0,1.867-.054,2.059-.054.542,0,1.294.054,1.852.054.192,0,.3-.037.3-.175s-.054-.141-.264-.141H4.032c-.54,0-.7-.227-.7-.542a3.37,3.37,0,0,1,.261-1.065l.944-2.5c.035-.1.069-.138.155-.138Z" transform="translate(-0.02 -97.675)" fill="#fff" fill-rule="evenodd"/>
    <path id="Path_94" data-name="Path 94" d="M146.7,136.332c0-2.656,0-3.146.035-3.7.037-.611.175-.91.649-.986a4.686,4.686,0,0,1,.68-.052c.21,0,.313-.035.313-.158s-.121-.158-.365-.158c-.683,0-1.958.052-2.377.052-.471,0-1.571-.052-2.392-.052-.264,0-.385.034-.385.158s.1.158.3.158a2.636,2.636,0,0,1,.577.052c.577.123.718.4.74.986.034.557.034,1.048.034,3.7V139.4c0,1.608,0,2.988-.089,3.721-.069.505-.155.89-.493.962a2.9,2.9,0,0,1-.629.069c-.21,0-.279.052-.279.141s.121.175.348.175c.35,0,.8-.037,1.206-.037s.8-.017.986-.017c.715,0,1.344.017,2.13.054s1.694.052,2.959.052c.91,0,.986-.089,1.1-.473a13.959,13.959,0,0,0,.261-2.007c0-.21-.017-.3-.141-.3s-.175.106-.192.264a2.192,2.192,0,0,1-.454,1.048c-.436.471-1.117.493-2.044.493-1.361,0-1.817-.123-2.113-.385-.367-.313-.367-1.519-.367-3.755Z" transform="translate(-107.64 -98.911)" fill="#fff" fill-rule="evenodd"/>
    <path id="Path_95" data-name="Path 95" d="M271.6,139.4c0,1.694,0,3.075-.089,3.807-.052.508-.158.8-.505.875a2.891,2.891,0,0,1-.629.069c-.21,0-.281.052-.281.141s.123.175.35.175c.7,0,1.8-.054,2.2-.054.471,0,1.571.054,2.725.054.192,0,.33-.054.33-.175s-.086-.141-.279-.141a7.425,7.425,0,0,1-.89-.069c-.525-.071-.646-.385-.7-.856-.069-.752-.069-2.133-.069-3.827v-3.072c0-2.656,0-3.146.034-3.7.035-.611.175-.91.646-.986a3,3,0,0,1,.525-.052c.175,0,.279-.034.279-.175s-.138-.141-.367-.141c-.663,0-1.694.052-2.13.052-.505,0-1.608-.052-2.271-.052-.279,0-.419.035-.419.141s.106.175.281.175a2.512,2.512,0,0,1,.629.069c.382.086.557.385.592.986.037.557.037,1.048.037,3.7Z" transform="translate(-203.477 -98.911)" fill="#fff" fill-rule="evenodd"/>
    <path id="Path_96" data-name="Path 96" d="M392.871,141.455a2.035,2.035,0,0,1-2.113,2.236,3.139,3.139,0,0,1-1.275-.21c-.56-.227-.612-.525-.612-1.677v-4.14c0-.086.035-.123.1-.123.261,0,.436,0,.752.02a2.5,2.5,0,0,1,1.45.419A4.158,4.158,0,0,1,392.871,141.455Zm-4-9.187c0-.192.035-.261.155-.3a2.871,2.871,0,0,1,.577-.035c1.5,0,2.185,1.536,2.185,2.712a2.28,2.28,0,0,1-.717,1.849,1.764,1.764,0,0,1-1.258.333,4.317,4.317,0,0,1-.821-.052c-.069-.017-.121-.052-.121-.192Zm-2.1,7.091c0,1.608,0,2.988-.089,3.721-.069.505-.158.89-.505.962a2.889,2.889,0,0,1-.629.069c-.21,0-.281.052-.281.141s.123.175.35.175c.35,0,.8-.037,1.206-.037s.8-.017.986-.017c.261,0,.784.017,1.309.054s1.013.052,1.233.052c3.205,0,4.663-1.94,4.663-3.809,0-2.042-1.746-3.282-3.178-3.772a3.792,3.792,0,0,0,1.78-3.055c0-.927-.557-2.621-3.718-2.621-.594,0-1.275.052-2.133.052-.348,0-1.45-.052-2.374-.052-.261,0-.385.035-.385.158s.106.158.3.158a3.637,3.637,0,0,1,.681.052c.577.123.715.4.74.986.037.557.037,1.048.037,3.7Z" transform="translate(-290.084 -98.865)" fill="#fff" fill-rule="evenodd"/>
    <path id="Path_97" data-name="Path 97" d="M520.736,138.945c0,1.608,0,2.988-.089,3.721-.069.505-.156.89-.493.962a2.892,2.892,0,0,1-.629.069c-.209,0-.279.052-.279.141s.121.175.348.175c.35,0,.8-.037,1.206-.037s.8-.017.986-.017c.523,0,1.065.017,1.817.054s1.711.052,3.02.052c.663,0,.821,0,.944-.454a13.867,13.867,0,0,0,.227-1.94c0-.175,0-.313-.141-.313s-.158.069-.192.261c-.121.715-.33,1.082-.786,1.292a4.425,4.425,0,0,1-1.64.21c-1.783,0-2.061-.261-2.1-1.467-.017-.505,0-2.113,0-2.712v-1.378c0-.106.02-.175.106-.175.419,0,2.148.017,2.48.052.646.069.89.333.986.681a4.635,4.635,0,0,1,.069.629.138.138,0,0,0,.158.158c.155,0,.155-.192.155-.333s.054-.819.072-1.169c.069-.89.138-1.171.138-1.275s-.052-.141-.121-.141-.158.086-.281.227a1.334,1.334,0,0,1-.838.261c-.419.035-2.409.037-2.794.037-.1,0-.123-.071-.123-.192v-4.416c0-.121.037-.173.123-.173.35,0,2.182.035,2.48.069.873.1,1.048.316,1.169.629a1.846,1.846,0,0,1,.106.629c0,.158.034.247.158.247s.158-.1.175-.192c.034-.21.069-.986.086-1.151a10.929,10.929,0,0,1,.141-1.137c0-.086-.017-.155-.106-.155a1.647,1.647,0,0,0-.279.069,7.071,7.071,0,0,1-.752.1c-.33.017-3.807.017-4.367.017-.247,0-.646-.017-1.1-.035s-.942-.017-1.415-.017c-.261,0-.385.034-.385.158s.106.158.3.158a3.635,3.635,0,0,1,.681.052c.577.123.717.4.752.986.034.557.034,1.048.034,3.7Z" transform="translate(-391.021 -98.451)" fill="#fff" fill-rule="evenodd"/>
    <path id="Path_98" data-name="Path 98" d="M645.336,141.334c0,.279,0,1.013-.052,1.746-.035.505-.193.89-.543.962a2.8,2.8,0,0,1-.609.069c-.192,0-.281.052-.281.141,0,.138.14.175.385.175.646,0,1.746-.054,2.182-.054.473,0,1.573.054,2.673.054.227,0,.367-.054.367-.175s-.086-.141-.278-.141a7.4,7.4,0,0,1-.873-.069c-.525-.072-.683-.456-.718-.962-.052-.74-.052-1.467-.052-1.746V139.9a4.192,4.192,0,0,1,.261-1.748,56.968,56.968,0,0,1,3.336-5.553,2.608,2.608,0,0,1,.944-.856,1.864,1.864,0,0,1,.767-.21c.193,0,.333-.054.333-.175s-.123-.141-.316-.141c-.33,0-1.479.052-1.869.052-.505,0-1.065-.052-1.64-.052-.209,0-.3.035-.3.158s.158.141.316.175a.417.417,0,0,1,.365.436,2.269,2.269,0,0,1-.247.907c-.247.542-2.446,4.384-2.619,4.8-.281-.493-2.712-4.7-2.959-5.222a1.639,1.639,0,0,1-.21-.594.316.316,0,0,1,.247-.313c.261-.069.382-.089.382-.192s-.086-.158-.261-.158c-.787,0-1.5.052-1.869.052-.577,0-1.886-.052-2.2-.052-.21,0-.333.052-.333.158s.123.158.261.158a1.765,1.765,0,0,1,.74.227,4.286,4.286,0,0,1,1.206,1.275c.612.907,2.959,4.751,3.072,5.03a3.673,3.673,0,0,1,.4,1.835Z" transform="translate(-481.953 -98.865)" fill="#fff" fill-rule="evenodd"/>
    <path id="Path_99" data-name="Path 99" d="M86.815,228.048V226.8c0-.846,0-1.344-.015-1.5a.385.385,0,0,0-.306-.4,1.318,1.318,0,0,0-.276-.022c-.079,0-.118-.022-.118-.064s.052-.064.155-.064c.145,0,.338,0,.572.012h.9l.493-.012a2.322,2.322,0,0,1,1.3.306,1.03,1.03,0,0,1,.311.36,1.166,1.166,0,0,1,.17.609,2.105,2.105,0,0,1-.935,1.588q.769.986.848,1.06.412.518.688.8a1.521,1.521,0,0,0,.794.493l.19.025c.062,0,.094.025.094.054s-.047.069-.136.069h-.673a1.657,1.657,0,0,1-.757-.133,3.77,3.77,0,0,1-.971-1.041q-.3-.434-.7-.986a.163.163,0,0,0-.128-.049h-.616c-.037,0-.054.017-.054.057v.1a14.543,14.543,0,0,0,.035,1.514c.035.207.121.372.276.39a2.586,2.586,0,0,0,.333.022c.057,0,.084.02.084.057s-.047.069-.141.069H86.327c-.113,0-.141-.022-.141-.069s.047-.054.141-.064.15-.012.227-.022.178-.153.2-.39A11.3,11.3,0,0,0,86.815,228.048Zm.836-2.84v2.153c0,.072.02.113.062.128a1.673,1.673,0,0,0,.54.072.863.863,0,0,0,.493-.121,1.238,1.238,0,0,0,.417-1.063,1.336,1.336,0,0,0-.375-1.028,1.033,1.033,0,0,0-.7-.269,1.072,1.072,0,0,0-.4.042.091.091,0,0,0-.044.086Z" transform="translate(-64.875 -169.328)" fill="#fff"/>
    <path id="Path_100" data-name="Path 100" d="M129.125,227.881v-1.248c0-.846,0-1.344-.015-1.5a.385.385,0,0,0-.306-.4,1.321,1.321,0,0,0-.276-.022c-.079,0-.118-.022-.118-.064s.052-.064.155-.064c.141,0,.333,0,.577.012h2.212a2.047,2.047,0,0,0,.306-.042l.113-.03c.027,0,.042.022.042.064a.353.353,0,0,1-.022.128,1.922,1.922,0,0,0-.032.333q-.011.192-.037.466a.071.071,0,0,1-.071.079c-.037,0-.047-.017-.057-.049s0-.113-.017-.168a.631.631,0,0,0-.032-.138c-.057-.136-.214-.222-.476-.247-.16-.02-.493-.03-1-.03-.035,0-.049.025-.049.071v1.793c0,.052.015.076.049.076.646,0,1.023,0,1.132-.012a.535.535,0,0,0,.348-.111c.052-.059.086-.089.106-.089a.055.055,0,0,1,.049.057.472.472,0,0,1-.022.143,2.758,2.758,0,0,0-.035.375c-.02.269-.027.427-.027.473,0,.091-.022.136-.064.136s-.064-.025-.064-.074a1.632,1.632,0,0,0-.03-.247c-.037-.16-.17-.247-.394-.276q-.2-.022-1.006-.022c-.03,0-.042.025-.042.071v1.657a.611.611,0,0,0,.165.493,1.375,1.375,0,0,0,.683.109,1.792,1.792,0,0,0,.666-.084.646.646,0,0,0,.318-.525c.015-.072.042-.106.079-.106s.057.042.057.128a3.2,3.2,0,0,1-.091.784c-.025.086-.057.138-.1.158a.925.925,0,0,1-.284.027c-.409,0-.819,0-1.233-.022l-.74-.02h-.893c-.1,0-.141-.022-.141-.069s.047-.054.141-.064.15-.012.227-.022.178-.153.2-.39A12.394,12.394,0,0,0,129.125,227.881Z" transform="translate(-96.753 -169.161)" fill="#fff"/>
    <path id="Path_101" data-name="Path 101" d="M169.171,229.915a2.54,2.54,0,0,1-1.033-.185.232.232,0,0,1-.136-.247c0-.247.012-.562.035-.927,0-.123.039-.182.086-.182s.069.039.069.118a1.32,1.32,0,0,0,.064.362.949.949,0,0,0,1.013.715.986.986,0,0,0,.715-.261.754.754,0,0,0,.234-.547,1.494,1.494,0,0,0-.7-1.132l-.325-.247a2.242,2.242,0,0,1-1.048-1.679,1.2,1.2,0,0,1,.454-.964,1.8,1.8,0,0,1,1.184-.375,3.725,3.725,0,0,1,.943.121c.063.019.1.047.1.084l-.015.247q-.015.266-.015.6c0,.141-.025.212-.076.212s-.071-.042-.071-.128a.74.74,0,0,0-.185-.466.927.927,0,0,0-.772-.348.893.893,0,0,0-.616.2.676.676,0,0,0-.224.528.794.794,0,0,0,.158.471,2.885,2.885,0,0,0,.592.55l.2.148a3.729,3.729,0,0,1,.912.895,1.655,1.655,0,0,1,.247.912,1.383,1.383,0,0,1-.666,1.233A2.024,2.024,0,0,1,169.171,229.915Z" transform="translate(-126.581 -169.042)" fill="#fff"/>
    <path id="Path_102" data-name="Path 102" d="M207.279,229.9a2.78,2.78,0,1,1,.072-5.553,2.959,2.959,0,0,1,2.088.715,2.508,2.508,0,0,1,.772,1.933,2.8,2.8,0,0,1-2.932,2.9Zm.3-.355a1.44,1.44,0,0,0,1-.375,2.462,2.462,0,0,0,.639-1.911,2.853,2.853,0,0,0-.6-1.884,1.845,1.845,0,0,0-1.479-.688,1.581,1.581,0,0,0-1.174.446,2.4,2.4,0,0,0-.567,1.77,2.907,2.907,0,0,0,.579,1.869,1.923,1.923,0,0,0,1.593.772Z" transform="translate(-154.025 -169.028)" fill="#fff"/>
    <path id="Path_103" data-name="Path 103" d="M252.645,228.048V226.8c0-.846,0-1.344-.015-1.5a.384.384,0,0,0-.306-.4,1.321,1.321,0,0,0-.276-.022c-.079,0-.118-.022-.118-.064s.052-.064.155-.064c.145,0,.338,0,.572.012h.9l.493-.012a2.322,2.322,0,0,1,1.3.306,1.029,1.029,0,0,1,.311.36,1.166,1.166,0,0,1,.17.609,2.1,2.1,0,0,1-.935,1.588q.769.986.848,1.06.412.518.688.8a1.531,1.531,0,0,0,.794.493l.19.025c.062,0,.094.025.094.054s-.047.069-.136.069h-.673a1.658,1.658,0,0,1-.757-.133,3.771,3.771,0,0,1-.971-1.04q-.3-.434-.7-.986a.163.163,0,0,0-.128-.049h-.614c-.039,0-.057.017-.057.057v.1a14.534,14.534,0,0,0,.035,1.514c.034.207.121.372.276.39a2.585,2.585,0,0,0,.348.03c.057,0,.084.02.084.057s-.047.069-.141.069h-1.911c-.113,0-.141-.022-.141-.069s.047-.054.141-.064.15-.012.227-.022.178-.153.2-.39Q252.645,229.281,252.645,228.048Zm.836-2.84v2.153c0,.071.02.113.062.128a1.67,1.67,0,0,0,.54.072.859.859,0,0,0,.493-.121,1.231,1.231,0,0,0,.417-1.063,1.337,1.337,0,0,0-.382-1.028,1.033,1.033,0,0,0-.7-.269,1.071,1.071,0,0,0-.4.042A.091.091,0,0,0,253.481,225.207Z" transform="translate(-189.817 -169.328)" fill="#fff"/>
    <path id="Path_104" data-name="Path 104" d="M294.874,227.76v-2.9l-1.055.03c-.375,0-.6.076-.688.2a1.539,1.539,0,0,0-.121.247c-.022.057-.049.086-.076.086s-.064-.037-.064-.113a4.614,4.614,0,0,1,.148-.814c.025-.091.052-.136.086-.136a.447.447,0,0,1,.113.039.616.616,0,0,0,.19.047c.247.022.493.034.708.034h2.806a3.214,3.214,0,0,0,.493-.032c.141-.022.2-.032.19-.032.04,0,.057.049.057.148v.394a2.516,2.516,0,0,1-.017.429c-.017.071-.025.106-.057.106s-.069-.047-.079-.143v-.077c-.022-.247-.3-.385-.836-.4l-.89-.022v2.9a14.532,14.532,0,0,0,.035,1.514c.035.207.121.36.276.382a2.542,2.542,0,0,0,.36.03c.076,0,.113.02.113.057s-.044.069-.133.069h-2c-.1,0-.141-.022-.141-.069s.047-.054.141-.064.15-.012.227-.022.177-.153.2-.39S294.874,228.557,294.874,227.76Z" transform="translate(-220.663 -169.04)" fill="#fff"/>
    <path id="Path_105" data-name="Path 105" d="M356.824,229.914a2.56,2.56,0,0,1-1.036-.185.246.246,0,0,1-.133-.247c0-.247,0-.562.034-.927,0-.123.039-.182.086-.182s.069.04.069.118a1.319,1.319,0,0,0,.064.362.949.949,0,0,0,1.013.715.986.986,0,0,0,.715-.261.754.754,0,0,0,.234-.547,1.494,1.494,0,0,0-.7-1.132l-.326-.247A2.242,2.242,0,0,1,355.8,225.7a1.2,1.2,0,0,1,.454-.964,1.8,1.8,0,0,1,1.183-.375,3.728,3.728,0,0,1,.943.121c.063.019.1.047.1.084l-.015.247q-.015.266-.015.6c0,.141-.025.212-.076.212s-.072-.042-.072-.128a.74.74,0,0,0-.185-.466.927.927,0,0,0-.772-.348.893.893,0,0,0-.616.2.678.678,0,0,0-.227.528.8.8,0,0,0,.16.471,2.886,2.886,0,0,0,.592.55l.2.148a3.732,3.732,0,0,1,.9.888,1.654,1.654,0,0,1,.261.917,1.383,1.383,0,0,1-.666,1.233A2.025,2.025,0,0,1,356.824,229.914Z" transform="translate(-267.966 -169.042)" fill="#fff"/>
    <path id="Path_106" data-name="Path 106" d="M397.16,229.9a2.78,2.78,0,1,1,.059-5.553,2.959,2.959,0,0,1,2.091.715,2.518,2.518,0,0,1,.772,1.933,2.8,2.8,0,0,1-2.932,2.9Zm.3-.355a1.44,1.44,0,0,0,1.006-.375,2.471,2.471,0,0,0,.639-1.911,2.839,2.839,0,0,0-.6-1.884,1.844,1.844,0,0,0-1.479-.688,1.59,1.59,0,0,0-1.176.446,2.409,2.409,0,0,0-.565,1.77,2.907,2.907,0,0,0,.579,1.869A1.918,1.918,0,0,0,397.456,229.545Z" transform="translate(-297.079 -169.027)" fill="#fff"/>
    <path id="Path_107" data-name="Path 107" d="M444.885,228.048V226.8c0-.846,0-1.344-.015-1.5a.382.382,0,0,0-.3-.4,1.333,1.333,0,0,0-.276-.022c-.081,0-.121-.022-.121-.064s.052-.064.155-.064c.148,0,.338,0,.575.012h.9l.493-.012a2.318,2.318,0,0,1,1.3.306,1.008,1.008,0,0,1,.311.36,1.166,1.166,0,0,1,.17.609,2.1,2.1,0,0,1-.935,1.588q.772.986.851,1.06.412.518.685.8a1.54,1.54,0,0,0,.794.493l.192.025c.062,0,.091.025.091.054s-.044.069-.136.069h-.671a1.667,1.667,0,0,1-.759-.133,3.75,3.75,0,0,1-.969-1.041q-.3-.434-.7-.986a.165.165,0,0,0-.128-.049h-.616a.049.049,0,0,0-.057.057v.1q0,1.2.034,1.514c.03.247.121.372.276.39a2.657,2.657,0,0,0,.348.03c.057,0,.086.02.086.057s-.049.069-.143.069h-1.908c-.114,0-.143-.022-.143-.069s.047-.054.143-.064.15-.012.224-.022.178-.153.207-.39Q444.883,229.281,444.885,228.048Zm.836-2.84v2.153c0,.071.022.113.064.128a1.644,1.644,0,0,0,.537.072.858.858,0,0,0,.493-.121,1.232,1.232,0,0,0,.417-1.063,1.33,1.33,0,0,0-.382-1.028,1.033,1.033,0,0,0-.7-.269,1.082,1.082,0,0,0-.4.042A.1.1,0,0,0,445.721,225.207Z" transform="translate(-334.657 -169.328)" fill="#fff"/>
    <path id="Path_108" data-name="Path 108" d="M493.651,228.521v.779c0,.138-.03.222-.091.247a4.475,4.475,0,0,1-3.995-.34,2.488,2.488,0,0,1-.986-2.118,2.79,2.79,0,0,1,.375-1.437,2.419,2.419,0,0,1,.858-.878,3.617,3.617,0,0,1,1.9-.461,6.465,6.465,0,0,1,1.253.113,4.841,4.841,0,0,0,.56.079c.067,0,.1.032.1.084a1.327,1.327,0,0,0-.027.276c-.015.227-.025.523-.025.885,0,.1-.025.148-.076.148s-.062-.03-.071-.091a1.021,1.021,0,0,0-.247-.587,1.574,1.574,0,0,0-.565-.362,2.694,2.694,0,0,0-1.013-.19,1.894,1.894,0,0,0-2.054,2.165,2.741,2.741,0,0,0,.681,1.913,2.293,2.293,0,0,0,1.785.74c.392,0,.619-.049.685-.148a.3.3,0,0,0,.049-.192v-1.5a.37.37,0,0,0-.3-.4,1.333,1.333,0,0,0-.276-.022c-.071,0-.106-.017-.106-.057s.049-.069.148-.069h1.857c.081,0,.141.022.141.069s-.027.057-.081.057a1.167,1.167,0,0,0-.2.022c-.17.032-.247.168-.269.4C493.654,227.824,493.651,228.107,493.651,228.521Z" transform="translate(-368.114 -169.003)" fill="#fff"/>
    <path id="Path_109" data-name="Path 109" d="M536.755,227.847v-1.033c0-.846,0-1.344-.012-1.5a.384.384,0,0,0-.306-.4,1.326,1.326,0,0,0-.276-.022c-.081,0-.121-.022-.121-.064s.052-.064.155-.064.331,0,.577.012h.865l.463-.012c.1,0,.155.022.155.064s-.037.064-.113.064a1.133,1.133,0,0,0-.2.022c-.16.027-.247.163-.262.4,0,.158-.015.656-.015,1.5v.986a2.188,2.188,0,0,0,.552,1.743,1.355,1.355,0,0,0,.885.291,1.314,1.314,0,0,0,.986-.385,1.388,1.388,0,0,0,.355-.74,6.515,6.515,0,0,0,.057-1.006v-.885c0-.846,0-1.344-.015-1.5a.384.384,0,0,0-.3-.4,1.238,1.238,0,0,0-.247-.022c-.079,0-.121-.022-.121-.064s.049-.064.15-.064q.311,0,.814.022h.333c.207,0,.365-.012.473-.012s.151.022.151.064-.044.064-.128.064a1.137,1.137,0,0,0-.2.022c-.16.027-.247.163-.264.4v2.261a4.959,4.959,0,0,1-.113,1.166,1.816,1.816,0,0,1-.56.964,2.185,2.185,0,0,1-1.479.51,2.239,2.239,0,0,1-1.571-.493A2.367,2.367,0,0,1,536.755,227.847Z" transform="translate(-403.875 -169.341)" fill="#fff"/>
    <path id="Path_110" data-name="Path 110" d="M585.406,225.793l.079,2.974c.015.471.1.74.247.786a1.585,1.585,0,0,0,.318.042c.114,0,.17.027.17.064s-.054.069-.163.069h-1.642c-.1,0-.155-.022-.155-.069s.049-.059.148-.064a1.214,1.214,0,0,0,.284-.03.271.271,0,0,0,.177-.224,3.98,3.98,0,0,0,.042-.653l.064-4.192c0-.165.037-.247.094-.247s.123.072.261.219q.579.626,2.194,2.276.722.755,1.558,1.617h.044l-.079-3.188a1.383,1.383,0,0,0-.062-.451.307.307,0,0,0-.17-.18,1.093,1.093,0,0,0-.385-.049c-.076,0-.113-.022-.113-.064s.061-.064.182-.064.313,0,.51.012h.594c.163,0,.311-.012.446-.012s.163.022.163.064-.042.064-.126.064c-.247,0-.38.079-.432.234a1.668,1.668,0,0,0-.044.39l-.076,4.468c0,.145-.037.219-.094.219s-.131-.052-.246-.155q-.681-.673-2.089-2.084c-.323-.316-.683-.69-1.085-1.124l-.594-.648Z" transform="translate(-440.205 -168.957)" fill="#fff"/>
  </g>
</svg>
