<svg xmlns="http://www.w3.org/2000/svg" width="36.098" height="26.321" viewBox="0 0 36.098 26.321">
  <defs>
    <style>
      .cls-1 {
        fill: #1f3d6d;
      }
    </style>
  </defs>
  <g id="Group_154" data-name="Group 154" transform="translate(-927.024 -848.368)">
    <rect id="Rectangle_197" data-name="Rectangle 197" class="cls-1" width="21.911" height="3.253" transform="translate(939.029 871.436)"/>
    <path id="Path_221" data-name="Path 221" class="cls-1" d="M927.059,868.681a2.475,2.475,0,0,1,.023-.942,22.149,22.149,0,0,1,2.937-4.68c2.076-2.077,4.441-2.819,7.2-3.523l3.416-.872a.048.048,0,0,0,.029-.019l6.231-8.816a.867.867,0,0,1,.4-.311l1.739-.654a.535.535,0,0,1,.693.677l-2.573,7.378a.05.05,0,0,0,.06.064l8.224-2.1.123-.031a6.323,6.323,0,0,0,3.707-2.733l2.059-3.264a1.037,1.037,0,0,1,.423-.393.96.96,0,0,1,1.372.908l-.247,5.73a2.327,2.327,0,0,1-1.418,2.042l-2.089.883-12,4.891L930.4,869.827C928.74,870.53,927.306,870.015,927.059,868.681Z" transform="translate(0 0)"/>
    <path id="Path_222" data-name="Path 222" class="cls-1" d="M966.6,882.733l5.023-2.06,3.6,2.26a.389.389,0,0,1,.071.6l-.344.351a1.951,1.951,0,0,1-1.816.538Z" transform="translate(-21.358 -17.433)"/>
  </g>
</svg>
