<svg xmlns="http://www.w3.org/2000/svg" width="38.709" height="24.906" viewBox="0 0 38.709 24.906">
  <defs>
    <style>
      .cls-1 {
        fill: #1f3d6d;
      }
    </style>
  </defs>
  <g id="Group_152" data-name="Group 152" transform="translate(-835.008 -660.553)">
    <g id="Group_151" data-name="Group 151" transform="translate(835.008 660.553)">
      <rect id="Rectangle_94" data-name="Rectangle 94" class="cls-1" width="21.318" height="3.165" transform="translate(13.484 21.741)"/>
      <path id="Path_144" data-name="Path 144" class="cls-1" d="M760.119,848.318a2.409,2.409,0,0,0-.664-.632,21.585,21.585,0,0,0-5.241-1.2c-2.857,0-4.995,1.116-7.376,2.528l-2.95,1.75a.052.052,0,0,1-.033.006L733.5,848.993a.848.848,0,0,0-.49.063l-1.646.747a.52.52,0,0,0-.011.942l6.846,3.307a.049.049,0,0,1,0,.085l-7.1,4.213-.107.063a6.153,6.153,0,0,1-4.43.671l-3.661-.83a1.013,1.013,0,0,0-.561.021.934.934,0,0,0-.319,1.568l4.112,3.772a2.263,2.263,0,0,0,2.381.429l2.045-.83,11.622-4.893,16.423-6.914C760.234,850.747,760.866,849.406,760.119,848.318Z" transform="translate(-721.721 -846.487)"/>
    </g>
    <path id="Path_145" data-name="Path 145" class="cls-1" d="M767.172,873.312,762.3,875.35l-.922,4.031a.378.378,0,0,0,.365.463l.478,0a1.9,1.9,0,0,0,1.619-.879Z" transform="translate(91.398 -200.744)"/>
  </g>
</svg>
