<svg xmlns="http://www.w3.org/2000/svg" width="36.975" height="36.976"  viewBox="0 0 36.975 36.976">
  <path id="Path_207" data-name="Path 207" d="M574.288,255.675a18.483,18.483,0,0,0-12.7-31.552.848.848,0,0,0-.122,0c-.084,0-.168-.006-.253-.006a18.487,18.487,0,0,0-18.487,18.452v0c0,.011,0,.022,0,.033a18.483,18.483,0,0,0,16.84,18.412l.158.044a.838.838,0,0,0,.226.032.847.847,0,0,0,.215-.032c.348.019.7.032,1.049.032a18.348,18.348,0,0,0,10.708-3.417l.027-.019A18.733,18.733,0,0,0,574.288,255.675Zm-.163-11.211-5.965-1.6c-.015,0-.029,0-.044-.006l-1.4-5.228c.006-.006.014-.011.02-.017l4.428-4.428,4.947,1.75,1.706,5.739ZM565.541,236l-5.443-1.458-1.546-5.77,3.192-2.895,6.882,1.785,1.364,3.889Zm-7.4-.574-3.88,3.88L548,237.624c-.015,0-.03,0-.045-.006l-1.05-3.676,5.473-5.538,4.21,1.213Zm-10.479,4.3,6.269,1.68.028,0,1.392,5.192-4.3,4.3-5.208-1.672-1.367-6.357Zm9.041,8.032,5.623,1.506,1.57,5.857-4.193,4.193-5.74-1.616-1.578-5.622Zm8.855,6.893L564,248.805l4.033-4.034,5.975,1.6h.008l1.188,5.447-4.012,4.228Z" transform="translate(-542.727 -224.114)" />
</svg>
