<svg xmlns="http://www.w3.org/2000/svg" width="42.901" height="21.389" viewBox="0 0 42.901 21.389">
  <g id="Group_133" data-name="Group 133" transform="translate(393 -359.194)">
    <path id="Path_202" data-name="Path 202" d="M-351.888,409.265c-13.429-4.836-26.858,6.753-40.286,1.113a1.339,1.339,0,0,1-.825-1.233h0a1.333,1.333,0,0,1,1.789-1.251c13.429,4.836,26.858-6.753,40.286-1.113a1.339,1.339,0,0,1,.825,1.233h0A1.333,1.333,0,0,1-351.888,409.265Z" transform="translate(0 -38.691)" />
    <path id="Path_203" data-name="Path 203" d="M-351.888,455.265c-13.429-4.836-26.858,6.753-40.286,1.113a1.339,1.339,0,0,1-.825-1.233h0a1.333,1.333,0,0,1,1.789-1.251c13.429,4.836,26.858-6.753,40.286-1.113a1.339,1.339,0,0,1,.825,1.233h0A1.333,1.333,0,0,1-351.888,455.265Z" transform="translate(0 -77.382)" />
    <path id="Path_204" data-name="Path 204" d="M-351.888,363.265c-13.429-4.836-26.858,6.753-40.286,1.113a1.339,1.339,0,0,1-.825-1.233h0a1.333,1.333,0,0,1,1.789-1.251c13.429,4.836,26.858-6.753,40.286-1.113a1.34,1.34,0,0,1,.825,1.233h0A1.333,1.333,0,0,1-351.888,363.265Z" />
  </g>
</svg>
